# xmcd
# 
# Track frame offsets:
#     150
#     12462
#     23735
#     35264
#     47769
#     58598
#     71146
#     81320
#     93339
#     103501
#     116164
#     127518
#     139003
#     151052
#     162192
# 
# Disc length: 2317
# 
# Revision: 2
# Processed by: cddbd v1.5.2PL0 Copyright (c) Steve Scherf et al.
# Submitted via: fre:ac v1.1beta1pre5
# 
DISCID=b9090b0f
DTITLE=Ray Charles - I Got A Woman CD 4 She's On The Ball
DYEAR=1949
DGENRE=Jazz
TTITLE0=Rockin' Chair Blues
TTITLE1=Here I Am
TTITLE2=How Long Blues
TTITLE3=Blues Before Sunrise
TTITLE4=A Sentimental Blues
TTITLE5=You'll Always Miss the Water
TTITLE6=Sittin' On the Top of The World
TTITLE7=I've had my Fun
TTITLE8=Ain't that Fine
TTITLE9=Don't Pull all Your Dreams in One Basket
TTITLE10=What have I Done
TTITLE11=See See Rider
TTITLE12=Honey Honey
TTITLE13=She's on the Ball
TTITLE14=If I Give You My Love
EXTD=
EXTT0=
EXTT1=
EXTT2=
EXTT3=
EXTT4=
EXTT5=
EXTT6=
EXTT7=
EXTT8=
EXTT9=
EXTT10=
EXTT11=
EXTT12=
EXTT13=
EXTT14=
PLAYORDER=
